<?xml version="1.0" encoding="UTF-8"?>
<svg xmlns="http://www.w3.org/2000/svg" xmlns:xlink="http://www.w3.org/1999/xlink" width="32px" height="32px" viewBox="0 0 32 32" version="1.1">
<g id="surface1">
<path style=" stroke:none;fill-rule:nonzero;fill:rgb(92.941177%,33.333334%,39.215687%);fill-opacity:1;" d="M 16 32 C 15.632812 32 15.332031 31.703125 15.332031 31.332031 L 15.332031 0.667969 C 15.332031 0.296875 15.632812 0 16 0 C 16.367188 0 16.667969 0.296875 16.667969 0.667969 L 16.667969 31.332031 C 16.667969 31.699219 16.367188 32 16 32 Z M 16 32 "/>
<path style=" stroke:none;fill-rule:nonzero;fill:rgb(92.941177%,33.333334%,39.215687%);fill-opacity:1;" d="M 31.332031 16.664062 L 0.667969 16.664062 C 0.296875 16.664062 0 16.367188 0 16 C 0 15.628906 0.296875 15.332031 0.667969 15.332031 L 31.332031 15.332031 C 31.703125 15.332031 32 15.628906 32 16 C 32 16.367188 31.703125 16.664062 31.332031 16.664062 Z M 31.332031 16.664062 "/>
<path style=" stroke:none;fill-rule:nonzero;fill:rgb(85.490197%,26.666668%,32.549021%);fill-opacity:1;" d="M 20 16 C 20 18.207031 18.210938 20 16 20 C 13.789062 20 12 18.207031 12 16 C 12 13.789062 13.789062 12 16 12 C 18.210938 12 20 13.789062 20 16 Z M 20 16 "/>
<path style=" stroke:none;fill-rule:nonzero;fill:rgb(92.941177%,33.333334%,39.215687%);fill-opacity:1;" d="M 16 20.667969 C 13.425781 20.667969 11.332031 18.574219 11.332031 16 C 11.332031 13.425781 13.425781 11.332031 16 11.332031 C 18.574219 11.332031 20.667969 13.425781 20.667969 16 C 20.667969 18.574219 18.574219 20.667969 16 20.667969 Z M 16 12.664062 C 14.160156 12.664062 12.667969 14.160156 12.667969 16 C 12.667969 17.835938 14.160156 19.332031 16 19.332031 C 17.835938 19.332031 19.332031 17.835938 19.332031 16 C 19.332031 14.160156 17.835938 12.664062 16 12.664062 Z M 16 12.664062 "/>
<path style=" stroke:none;fill-rule:nonzero;fill:rgb(26.274511%,29.019609%,32.941177%);fill-opacity:1;" d="M 16 24.664062 C 11.222656 24.664062 7.332031 20.777344 7.332031 16 C 7.332031 11.222656 11.222656 7.332031 16 7.332031 C 20.777344 7.332031 24.667969 11.222656 24.667969 16 C 24.667969 20.777344 20.777344 24.664062 16 24.664062 Z M 16 8.664062 C 11.957031 8.664062 8.667969 11.957031 8.667969 16 C 8.667969 20.042969 11.957031 23.332031 16 23.332031 C 20.042969 23.332031 23.332031 20.042969 23.332031 16 C 23.332031 11.957031 20.042969 8.664062 16 8.664062 Z M 16 8.664062 "/>
<path style=" stroke:none;fill-rule:nonzero;fill:rgb(26.274511%,29.019609%,32.941177%);fill-opacity:1;" d="M 16 28.667969 C 12.617188 28.667969 9.4375 27.347656 7.042969 24.957031 C 4.648438 22.5625 3.332031 19.382812 3.332031 16 C 3.332031 12.617188 4.652344 9.4375 7.042969 7.042969 C 9.4375 4.652344 12.617188 3.332031 16 3.332031 C 19.382812 3.332031 22.5625 4.652344 24.957031 7.042969 C 27.347656 9.433594 28.667969 12.617188 28.667969 16 C 28.667969 19.382812 27.347656 22.5625 24.957031 24.957031 C 22.5625 27.347656 19.382812 28.667969 16 28.667969 Z M 16 4.667969 C 12.972656 4.667969 10.125 5.84375 7.984375 7.984375 C 5.84375 10.125 4.667969 12.972656 4.667969 16 C 4.667969 19.027344 5.84375 21.871094 7.984375 24.015625 C 10.125 26.15625 12.972656 27.332031 16 27.332031 C 19.027344 27.332031 21.875 26.15625 24.015625 24.015625 C 26.15625 21.871094 27.332031 19.027344 27.332031 16 C 27.332031 12.972656 26.15625 10.125 24.015625 7.984375 C 21.875 5.84375 19.027344 4.667969 16 4.667969 Z M 16 4.667969 "/>
<path style=" stroke:none;fill-rule:nonzero;fill:rgb(26.274511%,29.019609%,32.941177%);fill-opacity:1;" d="M 16.472656 16.46875 C 16.210938 16.730469 15.789062 16.730469 15.527344 16.46875 C 15.269531 16.210938 15.269531 15.789062 15.527344 15.527344 C 15.789062 15.265625 16.210938 15.265625 16.472656 15.527344 C 16.730469 15.789062 16.730469 16.210938 16.472656 16.46875 Z M 16.472656 16.46875 "/>
</g>
</svg>
