<svg width="143" height="223" viewBox="0 0 143 223" fill="none" xmlns="http://www.w3.org/2000/svg">
<circle cx="71.2127" cy="14.8859" r="13.8859" fill="#333333" stroke="black" stroke-width="2"/>
<rect x="58.8416" y="26.4438" width="24.339" height="1.73029" rx="0.865147" fill="#333333" stroke="black" stroke-width="1.73029"/>
<path d="M103.776 95.2596C97.1872 105.155 93.3459 117.038 93.3459 129.815C93.346 145.463 99.1055 159.766 108.616 170.722V174.75H33.4055V170.722C42.9165 159.766 48.6769 145.463 48.6769 129.815C48.6769 117.038 44.8347 105.155 38.2463 95.2596H103.776Z" fill="#333333" stroke="black" stroke-width="2"/>
<path fill-rule="evenodd" clip-rule="evenodd" d="M71.0111 27.3088H63.6034L32.626 71.8449C29.9169 76.4779 28.1252 87.4472 42.6306 94.2597H71.0111H99.3916C113.897 87.4472 112.105 76.4779 109.396 71.8449L78.4188 27.3088H71.0111Z" fill="#333333"/>
<path d="M63.6034 27.3088V26.3088H63.0809L62.7825 26.7378L63.6034 27.3088ZM32.626 71.8449L31.805 71.2739L31.7826 71.3062L31.7627 71.3401L32.626 71.8449ZM42.6306 94.2597L42.2055 95.1648L42.4075 95.2597H42.6306V94.2597ZM99.3916 94.2597V95.2597H99.6147L99.8167 95.1648L99.3916 94.2597ZM109.396 71.8449L110.26 71.3401L110.24 71.3062L110.217 71.2739L109.396 71.8449ZM78.4188 27.3088L79.2397 26.7378L78.9414 26.3088H78.4188V27.3088ZM63.6034 28.3088H71.0111V26.3088H63.6034V28.3088ZM33.4469 72.4159L64.4244 27.8799L62.7825 26.7378L31.805 71.2739L33.4469 72.4159ZM43.0557 93.3546C36.0204 90.0504 33.0849 85.821 32.1439 81.9961C31.1908 78.1218 32.2398 74.4865 33.4892 72.3496L31.7627 71.3401C30.3031 73.8364 29.1017 78.0022 30.2018 82.4739C31.3141 86.995 34.7354 91.6565 42.2055 95.1648L43.0557 93.3546ZM71.0111 93.2597H42.6306V95.2597H71.0111V93.2597ZM71.0111 95.2597H99.3916V93.2597H71.0111V95.2597ZM99.8167 95.1648C107.287 91.6565 110.708 86.995 111.82 82.4739C112.921 78.0022 111.719 73.8364 110.26 71.3401L108.533 72.3496C109.782 74.4865 110.831 78.1218 109.878 81.9961C108.937 85.821 106.002 90.0504 98.9665 93.3546L99.8167 95.1648ZM110.217 71.2739L79.2397 26.7378L77.5979 27.8799L108.575 72.4159L110.217 71.2739ZM78.4188 26.3088H71.0111V28.3088H78.4188V26.3088Z" fill="black"/>
<rect x="29.7468" y="95.2596" width="82.5286" height="9.22081" rx="4.61041" fill="#333333" stroke="black" stroke-width="2"/>
<rect x="22.3384" y="176.75" width="97.3452" height="12.9595" fill="#333333" stroke="black" stroke-width="2"/>
<rect x="9.30713" y="191.709" width="123.408" height="13.707" fill="#333333" stroke="black" stroke-width="2"/>
<rect x="1" y="207.416" width="140.022" height="13.707" fill="#333333" stroke="black" stroke-width="2"/>
</svg>
