<svg width="143" height="170" viewBox="0 0 143 170" fill="none" xmlns="http://www.w3.org/2000/svg">
<path d="M71.0115 1C86.9964 1.00017 99.7585 12.5621 99.7585 26.5957C99.7585 40.6294 86.9965 52.1912 71.0115 52.1914C55.0263 52.1914 42.2634 40.6295 42.2634 26.5957C42.2635 12.5619 55.0264 1 71.0115 1Z" fill="#333333" stroke="black" stroke-width="2"/>
<path d="M103.776 42.9708C97.1873 52.8661 93.3459 64.7488 93.3459 77.5265C93.346 93.1738 99.1056 107.477 108.616 118.433V122.461H33.4055V118.433C42.9165 107.477 48.6769 93.1739 48.677 77.5265C48.677 64.7487 44.8348 52.8662 38.2463 42.9708H103.776Z" fill="#333333" stroke="black" stroke-width="2"/>
<rect x="29.7468" y="42.9708" width="82.5286" height="9.22081" rx="4.61041" fill="#333333" stroke="black" stroke-width="2"/>
<rect x="22.3384" y="124.461" width="97.3452" height="12.9595" fill="#333333" stroke="black" stroke-width="2"/>
<rect x="9.30713" y="139.42" width="123.408" height="13.707" fill="#333333" stroke="black" stroke-width="2"/>
<rect x="1" y="155.127" width="140.022" height="13.707" fill="#333333" stroke="black" stroke-width="2"/>
</svg>
