<svg width="143" height="163" viewBox="0 0 143 163" fill="none" xmlns="http://www.w3.org/2000/svg">
<rect x="16.8148" y="35.5975" width="108.393" height="9.22081" rx="4.61041" fill="#333333" stroke="black" stroke-width="2"/>
<rect x="22.3384" y="117.087" width="97.3452" height="12.9595" fill="#333333" stroke="black" stroke-width="2"/>
<rect x="9.30713" y="132.047" width="123.408" height="13.707" fill="#333333" stroke="black" stroke-width="2"/>
<rect x="1" y="147.754" width="140.022" height="13.707" fill="#333333" stroke="black" stroke-width="2"/>
<path d="M31.558 45.8184C32.8225 46.3495 35.3515 47.8102 35.3515 49.4037C35.3515 50.9973 29.2818 96.0142 26.247 118.323C25.7412 119.784 24.2743 122.825 22.4534 123.303C20.6325 123.781 54.0665 123.502 71.0111 123.303C87.9557 123.502 121.39 123.781 119.569 123.303C117.748 122.825 116.281 119.784 115.775 118.323C112.74 96.0142 106.671 50.9973 106.671 49.4037C106.671 47.8102 109.2 46.3495 110.464 45.8184H71.0111H31.558Z" fill="#333333" stroke="black" stroke-width="2"/>
<path d="M125.118 1.01746L122.588 36.0922L108.378 34.9611H20.2069L15.1946 1.2418H40.7119L42.0789 26.8351H58.6348V1.2418H82.9371V26.8351H108.378L108.142 1.29063L125.118 1.01746Z" fill="#3D3D3D" stroke="black" stroke-width="2"/>
<path d="M120.042 21.247L121.253 1.28943H124.938L123.621 21.247H123.647L123.272 26.548L123.095 29.2196H123.082L122.589 36.1816H19.3974L15.0354 1.37427H34.3059L35.8716 21.247H47.193L45.5069 1.37427H72.0038V21.247H88.2633V1.37427H111.99V21.247H120.042Z" fill="#333333" stroke="black" stroke-width="2"/>
</svg>
