<svg width="143" height="222" viewBox="0 0 143 222" fill="none" xmlns="http://www.w3.org/2000/svg">
<path d="M71.2125 1C78.8849 1 85.0983 7.19665 85.0983 14.833C85.0982 22.4693 78.8848 28.666 71.2125 28.666C63.5403 28.6659 57.3268 22.4693 57.3268 14.833C57.3268 7.1967 63.5403 1.00008 71.2125 1Z" fill="white" stroke="black" stroke-width="2"/>
<rect x="58.8385" y="26.3497" width="24.3452" height="1.72413" rx="0.862067" fill="white" stroke="black" stroke-width="1.72413"/>
<path d="M103.772 94.9242C97.1857 104.784 93.3459 116.622 93.3459 129.353C93.3459 144.946 99.1056 159.199 108.616 170.117V174.124H33.4055V170.117C42.9163 159.199 48.6769 144.946 48.6769 129.353C48.6769 116.622 44.837 104.783 38.2512 94.9242H103.772Z" fill="white" stroke="black" stroke-width="2"/>
<path fill-rule="evenodd" clip-rule="evenodd" d="M71.0111 27.2117H63.6034L32.626 71.5892C29.9169 76.2058 28.1252 87.136 42.6306 93.9243H71.0111H99.3916C113.897 87.136 112.105 76.2058 109.396 71.5892L78.4188 27.2117H71.0111Z" fill="white"/>
<path d="M63.6034 27.2117V26.2117H63.0819L62.7835 26.6393L63.6034 27.2117ZM32.626 71.5892L31.806 71.0168L31.7834 71.0491L31.7635 71.0831L32.626 71.5892ZM42.6306 93.9243L42.2068 94.83L42.4082 94.9243H42.6306V93.9243ZM99.3916 93.9243V94.9243H99.614L99.8155 94.83L99.3916 93.9243ZM109.396 71.5892L110.259 71.0831L110.239 71.0491L110.216 71.0168L109.396 71.5892ZM78.4188 27.2117L79.2388 26.6393L78.9403 26.2117H78.4188V27.2117ZM63.6034 28.2117H71.0111V26.2117H63.6034V28.2117ZM33.4459 72.1616L64.4234 27.7841L62.7835 26.6393L31.806 71.0168L33.4459 72.1616ZM43.0545 93.0185C36.0185 89.7258 33.0841 85.5117 32.1437 81.7027C31.1911 77.8443 32.2395 74.2237 33.4884 72.0953L31.7635 71.0831C30.3034 73.5713 29.1014 77.7241 30.202 82.182C31.3148 86.6893 34.7373 91.3344 42.2068 94.83L43.0545 93.0185ZM71.0111 92.9243H42.6306V94.9243H71.0111V92.9243ZM71.0111 94.9243H99.3916V92.9243H71.0111V94.9243ZM99.8155 94.83C107.285 91.3344 110.707 86.6893 111.82 82.182C112.921 77.7241 111.719 73.5713 110.259 71.0831L108.534 72.0953C109.783 74.2237 110.831 77.8443 109.879 81.7027C108.938 85.5117 106.004 89.7258 98.9677 93.0185L99.8155 94.83ZM110.216 71.0168L79.2388 26.6393L77.5988 27.7841L108.576 72.1616L110.216 71.0168ZM78.4188 26.2117H71.0111V28.2117H78.4188V26.2117Z" fill="black"/>
<rect x="29.7468" y="94.9242" width="82.5286" height="9.18089" rx="4.59044" fill="white" stroke="black" stroke-width="2"/>
<rect x="22.3384" y="176.124" width="97.3452" height="12.9063" fill="white" stroke="black" stroke-width="2"/>
<rect x="9.30713" y="191.03" width="123.408" height="13.6511" fill="white" stroke="black" stroke-width="2"/>
<rect x="1" y="206.681" width="140.022" height="13.6511" fill="white" stroke="black" stroke-width="2"/>
</svg>
