<svg width="143" height="222" viewBox="0 0 143 222" fill="none" xmlns="http://www.w3.org/2000/svg">
<path d="M71.3384 29.9254C84.9841 29.9254 97.2913 33.4586 106.156 39.1178C115.032 44.7842 120.338 52.49 120.338 60.8453C120.338 69.2919 114.935 79.9746 106 88.5865C97.0907 97.1732 84.8278 103.545 71.3384 103.545C57.8491 103.545 45.5862 97.1732 36.6773 88.5865C27.7422 79.9746 22.3384 69.2919 22.3384 60.8453C22.3386 52.49 27.6454 44.7842 36.5211 39.1178C45.3856 33.4586 57.6927 29.9254 71.3384 29.9254Z" fill="white" stroke="black" stroke-width="2"/>
<path d="M73.5029 1V14.0264H86.5293V19.0098H73.5029V32.0361H68.5195V19.0098H55.4932V14.0264H68.5195V1H73.5029Z" fill="white" stroke="black" stroke-width="2"/>
<rect x="29.7468" y="89.2278" width="82.5286" height="3.36703" rx="1.68352" fill="white" stroke="black" stroke-width="2"/>
<path d="M103.776 94.3237C97.1872 104.219 93.3459 116.102 93.3459 128.879C93.346 144.527 99.1055 158.83 108.616 169.786V173.814H33.4055V169.786C42.9165 158.83 48.6769 144.527 48.6769 128.879C48.6769 116.102 44.8347 104.219 38.2463 94.3237H103.776Z" fill="white" stroke="black" stroke-width="2"/>
<rect x="29.7468" y="94.3237" width="82.5286" height="9.22081" rx="4.61041" fill="white" stroke="black" stroke-width="2"/>
<rect x="22.3384" y="175.814" width="97.3452" height="12.9595" fill="white" stroke="black" stroke-width="2"/>
<rect x="9.30713" y="190.773" width="123.408" height="13.707" fill="white" stroke="black" stroke-width="2"/>
<rect x="1" y="206.48" width="140.022" height="13.707" fill="white" stroke="black" stroke-width="2"/>
<circle cx="71.2998" cy="16.3858" r="6.73348" fill="white" stroke="black" stroke-width="2"/>
</svg>
