<svg width="186" height="209" viewBox="0 0 186 209" fill="none" xmlns="http://www.w3.org/2000/svg">
<path d="M80.2755 1.00512C73.5129 1.00512 75.0596 14.7941 76.6784 21.6887C74.8517 26.8916 68.7872 29.1936 65.2632 31.8633C61.7392 34.5331 64.836 38.4842 58.5355 41.5811C52.2349 44.678 45.5072 50.3378 33.4401 59.9488C21.3729 69.5599 14.1112 72.9771 6.42243 73.9382C0.271382 74.7071 0.58463 79.3845 1.51014 81.627L19.8779 102.131H28.1006C28.6346 99.1404 32.2654 93.5874 40.5949 92.4127C48.9245 91.238 67.9329 95.6164 79.5729 89.6362C88.8849 84.8521 95.0573 75.1841 96.9795 70.9481L93.9384 79.8359C86.2502 100.979 53.6953 111.87 38.3789 114.673C32.8529 126.086 47.1775 149.208 55.0305 159.343V162.932H136.211V159.639C147.578 148.272 154.049 124.079 155.864 113.404C156.275 123.956 148.925 145.248 145.198 154.575L170.551 163.049C185.639 140.014 192.4 101.372 172.473 62.5288C156.49 31.371 124.02 21.6215 109.783 20.6415L109.053 24.7462C97.8295 5.32167 85.1916 0.82526 80.2755 1.00512Z" fill="white" stroke="black" stroke-width="2"/>
<rect x="45.4474" y="163.53" width="97.3452" height="12.9595" fill="white" stroke="black" stroke-width="2"/>
<rect x="32.4162" y="178.49" width="123.408" height="13.707" fill="white" stroke="black" stroke-width="2"/>
<rect x="24.1091" y="194.197" width="140.022" height="13.707" fill="white" stroke="black" stroke-width="2"/>
</svg>
