<svg width="143" height="205" viewBox="0 0 143 205" fill="none" xmlns="http://www.w3.org/2000/svg">
<rect x="29.7468" y="72.3352" width="82.5286" height="3.36703" rx="1.68352" fill="white" stroke="black" stroke-width="2"/>
<path d="M103.776 77.4312C97.1872 87.3265 93.3459 99.2091 93.3459 111.987C93.346 127.634 99.1055 141.937 108.616 152.893V156.921H33.4055V152.893C42.9165 141.937 48.6769 127.634 48.6769 111.987C48.6769 99.2091 44.8347 87.3265 38.2463 77.4312H103.776Z" fill="white" stroke="black" stroke-width="2"/>
<rect x="29.7468" y="77.4312" width="82.5286" height="9.22081" rx="4.61041" fill="white" stroke="black" stroke-width="2"/>
<rect x="22.3384" y="158.921" width="97.3452" height="12.9595" fill="white" stroke="black" stroke-width="2"/>
<rect x="9.30713" y="173.88" width="123.408" height="13.707" fill="white" stroke="black" stroke-width="2"/>
<rect x="1" y="189.587" width="140.022" height="13.707" fill="white" stroke="black" stroke-width="2"/>
<mask id="path-7-inside-1_102_547" fill="white">
<path fill-rule="evenodd" clip-rule="evenodd" d="M80.5017 22.2326C82.8572 19.8758 84.3139 16.6206 84.3139 13.0253C84.3139 5.83161 78.4823 0 71.2886 0C64.095 0 58.2634 5.83161 58.2634 13.0253C58.2634 16.6206 59.7201 19.8758 62.0755 22.2326L49.416 37.2326L71.2886 51.3638L93.1612 37.2326L80.5017 22.2326Z"/>
</mask>
<path fill-rule="evenodd" clip-rule="evenodd" d="M80.5017 22.2326C82.8572 19.8758 84.3139 16.6206 84.3139 13.0253C84.3139 5.83161 78.4823 0 71.2886 0C64.095 0 58.2634 5.83161 58.2634 13.0253C58.2634 16.6206 59.7201 19.8758 62.0755 22.2326L49.416 37.2326L71.2886 51.3638L93.1612 37.2326L80.5017 22.2326Z" fill="white"/>
<path d="M80.5017 22.2326L79.0871 20.8189L77.7883 22.1185L78.9733 23.5226L80.5017 22.2326ZM62.0755 22.2326L63.6039 23.5226L64.789 22.1185L63.4902 20.8189L62.0755 22.2326ZM49.416 37.2326L47.8876 35.9427L46.4219 37.6793L48.3307 38.9125L49.416 37.2326ZM71.2886 51.3638L70.2033 53.0437L71.2886 53.7449L72.3739 53.0437L71.2886 51.3638ZM93.1612 37.2326L94.2466 38.9125L96.1553 37.6793L94.6896 35.9427L93.1612 37.2326ZM82.3139 13.0253C82.3139 16.0691 81.083 18.8217 79.0871 20.8189L81.9164 23.6464C84.6313 20.9298 86.3139 17.1721 86.3139 13.0253H82.3139ZM71.2886 2C77.3777 2 82.3139 6.93618 82.3139 13.0253H86.3139C86.3139 4.72704 79.5868 -2 71.2886 -2V2ZM60.2634 13.0253C60.2634 6.93618 65.1995 2 71.2886 2V-2C62.9904 -2 56.2634 4.72704 56.2634 13.0253H60.2634ZM63.4902 20.8189C61.4942 18.8217 60.2634 16.0691 60.2634 13.0253H56.2634C56.2634 17.1721 57.9459 20.9298 60.6609 23.6464L63.4902 20.8189ZM60.5471 20.9427L47.8876 35.9427L50.9444 38.5225L63.6039 23.5226L60.5471 20.9427ZM48.3307 38.9125L70.2033 53.0437L72.3739 49.6839L50.5013 35.5527L48.3307 38.9125ZM72.3739 53.0437L94.2466 38.9125L92.0759 35.5527L70.2033 49.6839L72.3739 53.0437ZM94.6896 35.9427L82.0301 20.9427L78.9733 23.5226L91.6328 38.5225L94.6896 35.9427Z" fill="black" mask="url(#path-7-inside-1_102_547)"/>
<path d="M36.0329 74.0187C33.5983 67.3236 26.3388 51.9413 16.7775 43.9736C7.21614 36.0058 15.3388 34.1245 20.5954 34.1798C23.3549 34.7596 30.1297 36.7245 35.153 39.9463C38.351 41.9974 38.1662 39.0276 37.9423 35.4277C37.7265 31.9592 37.4744 27.9058 40.1764 27.1948C45.6362 25.758 49.9563 29.545 57.6572 36.2956L57.8546 36.4686C61.8858 40.0021 62.9153 36.6874 64.1715 32.6427C65.3537 28.8363 66.7366 24.3834 71.0111 24.3834C75.2855 24.3834 76.6685 28.8363 77.8507 32.6427C79.1069 36.6874 80.1364 40.0021 84.1676 36.4686L84.3649 36.2956C92.0658 29.545 96.3859 25.758 101.846 27.1948C104.548 27.9058 104.296 31.9592 104.08 35.4277C103.856 39.0276 103.671 41.9974 106.869 39.9463C111.892 36.7245 118.667 34.7596 121.427 34.1798C126.683 34.1245 134.806 36.0058 125.245 43.9736C115.683 51.9413 108.424 67.3236 105.989 74.0187H36.0329Z" fill="white" stroke="black" stroke-width="2"/>
</svg>
