<svg width="143" height="163" viewBox="0 0 143 163" fill="none" xmlns="http://www.w3.org/2000/svg">
<path d="M31.558 45.5289C32.8225 46.0601 35.3515 47.5208 35.3515 49.1143C35.3515 50.7079 29.2818 95.7247 26.247 118.034C25.7412 119.495 24.2743 122.536 22.4534 123.014C20.6325 123.492 54.0665 123.213 71.0111 123.014C87.9557 123.213 121.39 123.492 119.569 123.014C117.748 122.536 116.281 119.495 115.775 118.034C112.74 95.7247 106.671 50.7079 106.671 49.1143C106.671 47.5208 109.2 46.0601 110.464 45.5289H71.0111H31.558Z" fill="white" stroke="black" stroke-width="2"/>
<rect x="16.8148" y="35.3081" width="108.393" height="9.22081" rx="4.61041" fill="white" stroke="black" stroke-width="2"/>
<rect x="22.3384" y="116.798" width="97.3452" height="12.9595" fill="white" stroke="black" stroke-width="2"/>
<rect x="9.30713" y="131.757" width="123.408" height="13.707" fill="white" stroke="black" stroke-width="2"/>
<rect x="1" y="147.464" width="140.022" height="13.707" fill="white" stroke="black" stroke-width="2"/>
<path d="M125.118 0.728027L122.588 35.8027L108.378 34.6717H20.2069L15.1946 0.952373H40.7119L42.0789 26.5457H58.6348V0.952373H82.9371V26.5457H108.378L108.142 1.0012L125.118 0.728027Z" fill="#F1F1F1"/>
<path d="M120.042 20.9575L121.253 1H124.938L123.621 20.9575H123.647L123.272 26.2585L123.095 28.9302H123.082L122.589 35.8922H19.3974L15.0354 1.08484H34.3059L35.8716 20.9575H47.193L45.5069 1.08484H72.0038V20.9575H88.2633V1.08484H111.99V20.9575H120.042Z" fill="white" stroke="black" stroke-width="2"/>
</svg>
